<svg xmlns="http://www.w3.org/2000/svg" viewBox="0 0 64 64">
  <path fill="currentColor" d="M10 28v24c0 1.1.9 2 2 2h40c1.1 0 2-.9 2-2V28H10zm22-16L8 22v6h48v-6L32 12z"/>
  <g opacity=".4"><path fill="currentColor" d="M26 12l6 2 6-2v8l-6 2-6-2V12z"/></g>
  <path fill="var(--icon-color-accent, #ff8700)" d="M32 34a9 9 0 1 0 0 18 9 9 0 0 0 0-18zm0 4a5 5 0 1 1 0 10 5 5 0 0 1 0-10z"/>
  <path fill="var(--icon-color-accent, #ff8700)" d="M30 43h4v-4h-2l-1 1h-1v3zm0 0h4v1h-4z" style="display:none"/>
</svg>
